<svg xmlns="http://www.w3.org/2000/svg" width="256" height="256"><path fill="#faf7f3" fill-opacity=".11" fill-rule="evenodd" d="M0 128.004v128.004l128.25-.254 128.25-.254.254-127.75L257.008 0H0zm.485.496c0 70.4.119 99.053.265 63.672s.146-92.98 0-128S.485 58.1.485 128.5"/><path fill="#faf7f3" fill-opacity=".299" fill-rule="evenodd" d="M115.937 27.761c-13.357 9.12-13.806 9.522-15.357 13.739-.809 2.2-1.733 6.925-2.053 10.5s-.837 8.526-1.15 11.002c-.509 4.028-.19 5.027 3.033 9.5 6.536 9.068 6.584 7.834-.858 21.864-5.596 10.547-7.211 14.771-10.007 26.167-1.833 7.474-3.615 13.871-3.96 14.215-.698.698-8.218-6.338-12.556-11.748l-2.807-3.5 5.199.332c3.88.247 5.542-.082 6.55-1.297 1.156-1.393 1.034-2.017-.844-4.331-6.123-7.546-11.991-15.839-15.177-21.451-4.752-8.373-6.231-8.256-11.406.904-2.224 3.936-6.294 9.965-9.044 13.398-8.499 10.61-8.174 9.976-5.95 11.628 1.18.877 3.584 1.324 6.09 1.133l4.141-.316-1.961 2.753c-1.871 2.628-8.688 9.343-17.32 17.063-3.355 3.001-3.822 3.868-2.897 5.381.849 1.388 2.804 1.918 8.5 2.303l7.397.5-7.5 7.563c-4.125 4.159-9.696 9.359-12.38 11.554-5.792 4.737-5.778 7.516.048 9.439 4.666 1.539 19.224.18 28.621-2.672 1.641-.499 1.764.213 1.5 8.672l-.289 9.215-8.018 4.157c-10.119 5.246-16.82 9.744-22.232 14.922-4.365 4.176-5.149 6.351-3.05 8.45 1.868 1.868 213.383 1.729 214.1-.141.719-1.873-.018-2.654-6.519-6.901-3.145-2.056-6.346-4.979-7.113-6.498-.767-1.518-3.949-10.464-7.071-19.881-5.237-15.794-6.082-17.588-10.912-23.165-5.228-6.037-5.239-6.065-9.027-22.379-5.011-21.584-4.359-19.891-15.187-39.399C173.262 91.051 169 82.629 169 81.72s.721-3.165 1.603-5.014c1.534-3.216 1.446-4.046-2.032-19.24-2.092-9.138-4.364-16.688-5.353-17.785C160.673 36.858 128.781 22 125.267 22c-.491 0-4.689 2.592-9.33 5.761M79 147.8c0 1.035 2.165 3.2 3.2 3.2.44 0 .8-.9.8-2q0-2-2-2c-1.1 0-2 .36-2 .8M67 180v7h2.877c2.681 0 2.98-.408 4.384-5.985l1.508-5.985-3.634-1.009c-1.999-.556-3.973-1.012-4.385-1.015S67 176.15 67 180"/><path fill="#faf7f3" fill-opacity=".233" fill-rule="evenodd" d="M113.879 29.471c-5.235 3.56-10.348 7.389-11.362 8.511-2.039 2.252-4.459 15.753-4.495 25.073-.02 4.973.442 6.213 4.404 11.84l4.426 6.286-7.293 14.159c-6.159 11.96-7.712 16.025-9.991 26.16-1.484 6.6-2.911 12.645-3.172 13.434-.325.983-2.689-.75-7.506-5.5-3.867-3.814-7.49-7.768-8.051-8.787-.94-1.709-.704-1.8 3.028-1.169 8.824 1.49 10.496-1.941 4.263-8.75-3.764-4.113-10.846-14.316-14.376-20.712-1.084-1.965-2.38-3.041-3.418-2.84-.92.178-3.664 3.699-6.099 7.824s-6.859 10.475-9.832 14.111S39 116.219 39 116.826c0 1.931 3.9 3.283 7.514 2.605 1.975-.37 3.486-.246 3.486.287 0 1.559-10.342 12.474-16.364 17.271-9.093 7.243-7.325 10.813 4.853 9.803 4.685-.388 5.284-.239 4.545 1.13-.845 1.565-13.108 13.561-20.294 19.852-2.057 1.801-3.74 3.703-3.74 4.227s1.215 1.749 2.699 2.721c3.316 2.173 14.029 2.081 23.885-.205 3.597-.834 6.962-1.517 7.478-1.517.517 0 .938 4.171.938 9.285v9.286l-6.676 3.292C33.402 201.728 19 212.457 19 215.963c0 .492.709 1.603 1.576 2.47 1.418 1.418 12.167 1.551 107.236 1.322 98.471-.238 105.683-.371 105.988-1.953.213-1.109-1.168-2.623-3.987-4.37-8.643-5.357-9.336-6.498-15.912-26.229-5.73-17.19-6.534-18.922-11.509-24.786l-5.348-6.305-4.104-17.751c-4.378-18.937-4.889-20.19-17.16-42.095l-7.974-14.233 2.091-4.32 2.091-4.319-3.595-15.447c-1.978-8.496-3.985-16.176-4.46-17.068C162.28 37.781 130.712 23 125.749 23c-1.294 0-6.636 2.912-11.87 6.471m14.743 8.295C131.415 46.095 135 61.938 135 65.954c0 1.975-.688 3.344-2.048 4.072-2.835 1.517-3.522 3.784-5.929 19.56-3.059 20.052-3.049 20.159 3.268 33.414l5.481 11.5 2.314 24.763 2.313 24.763 8.051 4.139c4.427 2.276 9.625 5.115 11.55 6.307a368 368 0 0 0 4.635 2.836c.624.367-2.21-9.505-6.298-21.939s-7.197-22.842-6.909-23.13 1.322.097 2.298.856c5.139 3.999 19.023 15.929 20.643 17.738 1.028 1.148 5.138 10.542 9.134 20.877l7.265 18.79 4.366 1.17c6.556 1.756 16.796 1.676 17.492-.137.309-.806-2.248-9.919-5.684-20.25-5.825-17.516-6.579-19.149-11.189-24.217-2.718-2.989-5.303-6.383-5.744-7.543-.441-1.159-2.647-10.073-4.903-19.807l-4.101-17.7-9.483-17.132c-12.023-21.722-12.418-22.782-10.216-27.399.932-1.954 1.694-4.494 1.694-5.645 0-4.348-5.398-25.41-6.915-26.983C154.851 43.579 128.17 31 126.691 31c-.186 0 .683 3.045 1.931 6.766m21.828 60.593c-4.916 2.218-8.45 7.156-8.45 11.809 0 4.298 7.141 19.47 11.733 24.927 3.677 4.369 9.092 5.626 14.819 3.438 5.542-2.116 8.456-6.287 8.405-12.033-.042-4.786-9.957-23.712-13.98-26.687-3.39-2.506-8.803-3.134-12.527-1.454m1.205 8.47c-2.023 2.235-2.18 6.171-.246 6.171.775 0 2.988 2.811 4.917 6.247 2.714 4.831 3.252 6.557 2.374 7.615-.882 1.062-.615 1.788 1.193 3.253 3.921 3.175 9.107 1.689 9.107-2.609 0-2.294-7.473-17.961-10.045-21.061-1.661-2-5.316-1.808-7.3.384M78.924 148.34c2.894 3.175 4.076 3.366 4.076.66 0-1.1-.638-2-1.418-2s-2.243-.297-3.25-.66c-1.475-.532-1.36-.142.592 2M67 180.388v7.65l2.75-.66c1.513-.362 2.975-.858 3.249-1.101 1.032-.914 2.821-10.81 2.091-11.563-.42-.433-2.411-1.054-4.426-1.381L67 172.738z"/><path fill="#faf7f3" fill-opacity=".336" fill-rule="evenodd" d="M113.548 30.061c-5.927 3.963-11.161 8.24-11.93 9.75-1.389 2.726-2.137 7.647-3.22 21.189l-.599 7.5 4.574 6c2.515 3.3 4.586 6.324 4.6 6.72.015.396-2.684 5.644-5.997 11.662-6.912 12.557-8.718 17.431-11.995 32.368-1.297 5.912-2.836 10.752-3.42 10.754-.583.002-4.621-3.71-8.973-8.25l-7.911-8.254 6.212-.299c4.051-.195 6.391-.766 6.727-1.643.284-.739-2.338-4.879-5.826-9.201-3.488-4.321-8.039-10.894-10.115-14.607C63.6 90.038 61.292 87 60.547 87s-2.8 2.588-4.564 5.75c-3.678 6.592-9.904 15.296-14.258 19.934-4.21 4.484-3.198 6.142 3.974 6.515l5.801.301-11.75 11.692C33.287 137.622 28 143.344 28 143.907c0 2.189 4.306 3.317 10.145 2.656 3.22-.364 5.855-.365 5.855-.001 0 1.619-8.827 10.955-16.069 16.996-4.905 4.091-7.931 7.354-7.931 8.553 0 4.166 9.386 5.135 23.5 2.425 12.494-2.398 11.62-2.995 11.288 7.714l-.288 9.25-6.5 3.336c-10.025 5.146-20.562 11.906-24.465 15.695-3.284 3.189-4.548 6.733-2.785 7.809.652.398 208.697 1.188 212 .805 2.85-.331.886-3.085-4.624-6.487-3.231-1.994-6.539-4.645-7.351-5.892-.812-1.246-4.131-10.307-7.376-20.134-5.331-16.148-6.355-18.39-10.639-23.296-2.606-2.986-5.129-6.195-5.606-7.132s-2.322-8.229-4.099-16.204c-4.517-20.268-4.797-20.99-15.632-40.239-9.27-16.471-9.636-17.347-8.442-20.238.686-1.663 1.468-4.228 1.736-5.701.583-3.195-5.316-29.356-7.344-32.573C161.328 38.008 130.495 23 125.881 23c-.976 0-6.526 3.177-12.333 7.061m3.936 6.294c-4.399 2.945-8.489 5.982-9.09 6.75s-1.582 6.078-2.183 11.802l-1.091 10.407 3.131 4.593c1.722 2.526 4.708 6.056 6.636 7.843l3.505 3.251-3.073 3.249c-1.69 1.788-5.877 8.558-9.304 15.047-6.258 11.848-8.526 19.148-12.487 40.203-.724 3.85-2.217 9.812-3.317 13.249l-2.001 6.249 3.894 3.085c3.54 2.803 3.951 2.917 4.517 1.251 2.107-6.211 12.924-29.541 14.179-30.581 1.342-1.113 1.435.372.828 13.247l-.685 14.5 6.206 3.975c4.623 2.961 7.192 5.548 10.074 10.145 3.474 5.54 4.469 6.395 9.733 8.363 3.225 1.206 10.066 4.556 15.204 7.444 5.137 2.888 13.165 7.41 17.84 10.05 15.764 8.901 23.473 11.751 33.235 12.287 7.625.418 8.819.26 9.398-1.25.387-1.009-1.933-9.639-5.572-20.725-5.981-18.222-6.451-19.231-11.53-24.755-5.254-5.716-5.319-5.864-8.502-19.647-1.765-7.638-3.804-16.264-4.532-19.17-.728-2.905-5.809-13.48-11.292-23.5s-10.253-19.156-10.602-20.304c-.366-1.204.2-3.973 1.336-6.542l1.971-4.455-3.096-13.458c-1.703-7.402-3.408-13.811-3.789-14.242C156.031 43.591 128.22 31 126.729 31c-.686 0-4.846 2.41-9.245 5.355m34.701 61.708c-6.345 1.361-11.096 8.631-9.818 15.022.32 1.598 2.955 7.254 5.857 12.569 6.031 11.045 8.786 13.337 16.041 13.342 3.994.003 5.344-.527 8.348-3.28 2.846-2.608 3.675-4.204 4.025-7.75.392-3.975-.228-5.701-5.636-15.701-3.342-6.179-7.023-11.741-8.179-12.36-3.662-1.959-7.219-2.575-10.638-1.842M151 107c-1.1 1.1-2 2.413-2 2.918 0 2.041 1.294 4.082 2.587 4.082 1.928 0 7.557 10.066 6.97 12.463-.651 2.655 2.159 5.537 5.398 5.537 6.305 0 6.584-4.95.886-15.673-2.288-4.305-4.833-8.614-5.655-9.577-1.992-2.33-5.719-2.217-8.186.25m-72.115 41.838c2.658 3.733 3.675 3.951 4.459.956.704-2.695.778-2.62-3.35-3.445l-3.36-.672zM67 179.933c0 8.418.155 8.669 4.629 7.468 1.652-.443 2.38-1.823 3.25-6.153 1.463-7.287 1.539-6.932-1.629-7.687-1.513-.361-3.537-.89-4.5-1.176-1.565-.465-1.75.333-1.75 7.548m16.504-2.939c-.177.286-.638 2.205-1.025 4.264-.66 3.522-.553 3.742 1.828 3.742 3.885 0 5.634-.985 7.23-4.072.805-1.556 1.463-3.031 1.463-3.278 0-.648-9.112-1.279-9.496-.656"/></svg>